<svg width="1792" height="1792" xmlns="http://www.w3.org/2000/svg" viewBox="598 -476.1 1792 1536"><path fill="#474C55" d="M2006 451.9v320c0 79.3-28.2 147.2-84.5 203.5s-124.2 84.5-203.5 84.5H886c-79.3 0-147.2-28.2-203.5-84.5S598 851.2 598 771.9v-832c0-79.3 28.2-147.2 84.5-203.5s124.2-84.5 203.5-84.5h704c9.3 0 17 3 23 9s9 13.7 9 23v64c0 9.3-3 17-9 23s-13.7 9-23 9H886c-44 0-81.7 15.7-113 47s-47 69-47 113v832c0 44 15.7 81.7 47 113s69 47 113 47h832c44 0 81.7-15.7 113-47s47-69 47-113v-320c0-9.3 3-17 9-23s13.7-9 23-9h64c9.3 0 17 3 23 9s9 13.7 9 23zm384-864v512c0 17.3-6.3 32.3-19 45s-27.7 19-45 19-32.3-6.3-45-19l-176-176-652 652c-6.7 6.7-14.3 10-23 10s-16.3-3.3-23-10l-114-114c-6.7-6.7-10-14.3-10-23s3.3-16.3 10-23l652-652-176-176c-12.7-12.7-19-27.7-19-45s6.3-32.3 19-45 27.7-19 45-19h512c17.3 0 32.3 6.3 45 19s19 27.7 19 45z"/></svg>