<svg height="368pt" viewBox="0 -10 368.64 368" width="368pt" xmlns="http://www.w3.org/2000/svg"><path d="m54.613281 341.652344h-27.304687v-34.132813h40.957031zm0 0" fill="#bfad88"/><path d="m54.613281 341.652344v-6.824219h-20.480469v-20.480469h24.050782l-9.910156 24.769532 6.339843 2.535156v-6.824219 6.824219l6.339844 2.535156 13.652344-34.132812c.839843-2.097657.582031-4.492188-.6875-6.359376-1.265625-1.875-3.390625-3.003906-5.652344-3.003906h-40.957031c-1.800782 0-3.558594.730469-4.828125 2.003906-1.273438 1.269532-2 3.027344-2 4.824219v34.132813c0 1.796875.726562 3.558594 2 4.828125 1.269531 1.269531 3.027343 2 4.828125 2h27.304687c2.78125 0 5.304688-1.707031 6.339844-4.292969zm0 0" fill="#54596e"/><path d="m314.027344 341.652344h27.304687v-34.132813h-40.957031zm0 0" fill="#bfad88"/><path d="m314.027344 341.652344v6.828125h27.304687c1.796875 0 3.558594-.730469 4.828125-2 1.269532-1.273438 2-3.03125 2-4.828125v-34.132813c0-1.796875-.730468-3.554687-2-4.824219-1.269531-1.273437-3.03125-2.003906-4.828125-2.003906h-40.957031c-2.261719 0-4.386719 1.128906-5.652344 3-1.269531 1.871094-1.527344 4.265625-.6875 6.363282l13.652344 34.132812c1.03125 2.585938 3.558594 4.292969 6.339844 4.292969v-6.828125l6.335937-2.535156-9.90625-24.769532h24.050781v20.480469h-20.480468v6.824219l6.335937-2.535156zm0 0" fill="#54596e"/><path d="m314.027344 191.464844h-266.242188v-170.664063c0-7.539062 6.113282-13.652343 13.65625-13.652343h238.933594c7.539062 0 13.652344 6.113281 13.652344 13.652343zm0 0" fill="#61c5a8"/><path d="m314.027344 191.464844v-6.824219h-259.414063v-163.839844c.007813-3.765625 3.058594-6.820312 6.828125-6.828125h238.933594c3.765625.007813 6.816406 3.0625 6.824219 6.828125v170.664063h6.828125v-6.824219 6.824219h6.824218v-170.664063c-.003906-11.3125-9.164062-20.476562-20.476562-20.480469h-238.933594c-11.316406.003907-20.476562 9.167969-20.480468 20.480469v170.664063c0 1.800781.726562 3.558594 2 4.828125 1.269531 1.273437 3.027343 2 4.824218 2h266.242188c1.796875 0 3.554687-.726563 4.824218-2 1.273438-1.269531 2-3.027344 2-4.828125zm0 0" fill="#54596e"/><path d="m293.546875 116.375v129.703125h-218.453125v-129.703125c0-7.542969-6.113281-13.65625-13.652344-13.65625h-40.960937c-7.539063 0-13.652344 6.113281-13.652344 13.65625v177.492188c0 7.539062 6.113281 13.652343 13.652344 13.652343h327.679687c7.539063 0 13.652344-6.113281 13.652344-13.652343v-177.492188c0-7.542969-6.113281-13.65625-13.652344-13.65625h-40.960937c-7.539063 0-13.652344 6.113281-13.652344 13.65625" fill="#9af43b"/><path d="m293.546875 116.375h-6.828125v122.878906h-204.796875v-122.878906c-.007813-11.316406-9.167969-20.476562-20.480469-20.480469h-40.960937c-11.3125.003907-20.47656275 9.164063-20.480469 20.480469v177.492188c.00390625 11.3125 9.167969 20.472656 20.480469 20.480468h327.679687c11.3125-.007812 20.476563-9.167968 20.480469-20.480468v-177.492188c-.003906-11.316406-9.167969-20.476562-20.480469-20.480469h-40.960937c-11.3125.003907-20.472657 9.164063-20.480469 20.480469h13.65625c.003906-3.769531 3.058594-6.820312 6.824219-6.828125h40.960937c3.765625.007813 6.820313 3.058594 6.828125 6.828125v177.492188c-.007812 3.765624-3.0625 6.820312-6.828125 6.824218h-327.679687c-3.765625-.003906-6.820313-3.058594-6.828125-6.824218v-177.492188c.007812-3.769531 3.0625-6.820312 6.828125-6.828125h40.960937c3.765625.007813 6.820313 3.058594 6.824219 6.828125v129.703125c0 1.800781.730469 3.558594 2 4.828125 1.269531 1.273438 3.03125 2 4.828125 2h218.453125c1.796875 0 3.554687-.726562 4.828125-2 1.269531-1.269531 2-3.027344 2-4.828125v-129.703125z" fill="#54596e"/><path d="m286.71875 218.773438h-204.796875v20.480468h204.796875z" fill="#e6e6e9"/><path d="m305.109375 218.773438h-4.734375v27.304687c0 1.800781-.730469 3.558594-2 4.828125-1.273438 1.273438-3.03125 2-4.828125 2h-218.453125c-1.796875 0-3.558594-.726562-4.828125-2-1.273437-1.269531-2-3.027344-2-4.828125v-27.304687h-4.738281c-12.464844 0-22.566406 10.101562-22.566406 22.570312v9.472656c0 12.464844 10.101562 22.570313 22.566406 22.570313h241.582031c12.46875 0 22.570313-10.105469 22.570313-22.570313v-9.472656c0-12.46875-10.101563-22.570312-22.570313-22.570312" fill="#90dd43"/><path d="m300.375 218.773438h-13.65625v20.480468h-204.796875v-20.480468h-13.65625v27.304687c0 1.800781.730469 3.558594 2 4.828125 1.269531 1.273438 3.03125 2 4.828125 2h218.453125c1.796875 0 3.554687-.726562 4.828125-2 1.269531-1.269531 2-3.027344 2-4.828125z" fill="#54596e"/><path d="m305.109375 246.078125h-241.578125c-12.46875 0-22.570312-10.101563-22.570312-22.570313v-9.472656c0-12.464844 10.101562-22.570312 22.570312-22.570312h241.578125c12.46875 0 22.574219 10.105468 22.574219 22.574218v9.472657c-.003906 12.464843-10.105469 22.566406-22.574219 22.566406zm0 0" fill="#61c5a8"/><g fill="#54596e"><path d="m305.109375 246.078125v-6.824219h-241.578125c-8.695312-.015625-15.726562-7.050781-15.746094-15.746094v-9.472656c.015625-8.691406 7.050782-15.726562 15.746094-15.742187h241.578125c8.695313.015625 15.730469 7.046875 15.746094 15.742187v9.472656c-.015625 8.695313-7.050781 15.726563-15.746094 15.746094v13.652344c16.242187-.003906 29.394531-13.15625 29.398437-29.398438v-9.472656c-.003906-16.238281-13.160156-29.390625-29.398437-29.398437h-241.578125c-16.238281.003906-29.394531 13.160156-29.398438 29.398437v9.472656c.003907 16.242188 13.160157 29.394532 29.398438 29.398438h241.578125zm0 0"/><path d="m144.203125 128.261719c8.980469 9.753906 23.648437 15.359375 40.117187 15.417969 16.304688-.054688 30.839844-5.558594 39.84375-15.125 2.566407-2.761719 2.40625-7.082032-.351562-9.648438-2.761719-2.566406-7.082031-2.410156-9.648438.351562-5.4375 5.972657-16.710937 10.824219-29.84375 10.769532-13.269531.058594-24.632812-4.898438-30.011718-10.945313-2.535156-2.792969-6.851563-3-9.640625-.464843-2.792969 2.535156-3 6.851562-.464844 9.644531zm0 0"/><path d="m143.359375 85.652344c0 5.65625-4.582031 10.242187-10.238281 10.242187s-10.242188-4.585937-10.242188-10.242187 4.585938-10.238282 10.242188-10.238282 10.238281 4.582032 10.238281 10.238282zm0 0"/><path d="m245.761719 85.652344c0 5.65625-4.585938 10.242187-10.242188 10.242187s-10.238281-4.585937-10.238281-10.242187 4.582031-10.238282 10.238281-10.238282 10.242188 4.582032 10.242188 10.238282zm0 0"/></g><path d="m279.894531 109.546875c0 7.539063-6.113281 13.652344-13.65625 13.652344-7.539062 0-13.652343-6.113281-13.652343-13.652344s6.113281-13.652344 13.652343-13.652344c7.542969 0 13.65625 6.113281 13.65625 13.652344zm0 0" fill="#fff35f"/><path d="m116.054688 109.546875c0 7.539063-6.113282 13.652344-13.65625 13.652344-7.539063 0-13.652344-6.113281-13.652344-13.652344s6.113281-13.652344 13.652344-13.652344c7.542968 0 13.65625 6.113281 13.65625 13.652344zm0 0" fill="#fff35f"/></svg>